<svg width="46" height="46" viewBox="0 0 46 46" fill="none" xmlns="http://www.w3.org/2000/svg">
<g clip-path="url(#clip0)">
<path d="M45.3356 12.4434C43.2782 9.96367 40.5379 8.54414 37.5731 8.41836C37.4293 5.53437 36.0367 2.72227 33.5571 0.664844C33.027 0.224609 32.3801 0 31.7242 0C31.0774 0 30.4215 0.224609 29.8914 0.664844C27.4477 2.69531 26.0192 5.42656 25.8844 8.37344C25.8215 9.67617 26.0461 10.952 26.4774 12.1648C25.2824 11.7695 24.0696 11.509 22.8567 11.509C18.5442 11.509 14.4024 13.9168 12.3809 18.0496L0.216038 42.9723C-0.0534931 43.5293 -0.0804462 44.2121 0.216038 44.8141C0.584398 45.5598 1.3301 45.991 2.10276 45.991C2.40823 45.991 2.72268 45.9191 3.01916 45.7754L27.9598 33.6016C30.2059 32.5055 32.1285 30.6727 33.3145 28.2469C34.6981 25.4168 34.8149 22.2992 33.8985 19.523C34.9586 19.8914 36.0457 20.116 37.1688 20.116C40.2864 20.116 43.1883 18.6875 45.3356 16.1C46.225 15.0488 46.225 13.5035 45.3356 12.4434ZM30.736 26.998C29.8735 28.768 28.4719 30.1695 26.702 31.032L15.4895 36.5035C15.4535 36.4586 15.4356 36.4047 15.3906 36.3598L12.5156 33.4848C11.9586 32.9277 11.0422 32.9277 10.4852 33.4848C9.92815 34.0418 9.92815 34.9582 10.4852 35.5152L12.7852 37.8152L3.78284 42.2176L13.8364 21.6164L16.2352 24.0152C16.5137 24.2937 16.8821 24.4375 17.2504 24.4375C17.6188 24.4375 17.9871 24.2937 18.2656 24.0152C18.8227 23.4582 18.8227 22.5418 18.2656 21.9848L15.3906 19.1098C15.3278 19.0469 15.2379 19.0109 15.166 18.957C16.7024 16.127 19.6043 14.375 22.8567 14.375C24.1953 14.375 25.4801 14.6715 26.693 15.2645C28.7953 16.2887 30.3766 18.0766 31.1403 20.2957C31.9039 22.5148 31.7602 24.8867 30.736 26.998ZM37.1778 17.25C35.2461 17.25 33.3055 16.4504 31.7332 14.8691L31.1313 14.2672C27.7891 10.934 27.9508 6.00156 31.7242 2.875C34.7071 5.3457 35.4528 8.94844 33.9973 12.0031C35.0035 11.527 36.0637 11.2844 37.1328 11.2844C39.2981 11.2844 41.4723 12.2816 43.1254 14.2762C41.4813 16.2617 39.325 17.25 37.1778 17.25Z" fill="white"/>
</g>
<defs>
<clipPath id="clip0">
<rect width="46" height="46" fill="white"/>
</clipPath>
</defs>
</svg>
