<svg width="55" height="60" viewBox="0 0 55 60" fill="none" xmlns="http://www.w3.org/2000/svg">
<path d="M17.6786 56.1328H5.89286C2.63951 56.1328 0 53.6133 0 50.5078V9.25781C0 6.15234 2.63951 3.63281 5.89286 3.63281H17.6786C20.9319 3.63281 23.5714 6.15234 23.5714 9.25781V50.5078C23.5714 53.6133 20.9319 56.1328 17.6786 56.1328ZM55 50.5078V9.25781C55 6.15234 52.3605 3.63281 49.1071 3.63281H37.3214C34.0681 3.63281 31.4286 6.15234 31.4286 9.25781V50.5078C31.4286 53.6133 34.0681 56.1328 37.3214 56.1328H49.1071C52.3605 56.1328 55 53.6133 55 50.5078Z" fill="black"/>
</svg>
